<?xml version="1.0" encoding="UTF-8" standalone="no"?>
<!-- Created with Inkscape (http://www.inkscape.org/) -->

<svg
   xmlns:dc="http://purl.org/dc/elements/1.1/"
   xmlns:cc="http://creativecommons.org/ns#"
   xmlns:rdf="http://www.w3.org/1999/02/22-rdf-syntax-ns#"
   xmlns:svg="http://www.w3.org/2000/svg"
   xmlns="http://www.w3.org/2000/svg"
   xmlns:sodipodi="http://sodipodi.sourceforge.net/DTD/sodipodi-0.dtd"
   xmlns:inkscape="http://www.inkscape.org/namespaces/inkscape"
   width="185.40123mm"
   height="61.94994mm"
   viewBox="0 0 185.40123 61.94994"
   version="1.1"
   id="svg8"
   inkscape:version="0.92.0 r15299"
   sodipodi:docname="wakefern.svg">
  <defs
     id="defs2">
    <clipPath
       id="clipPath38"
       clipPathUnits="userSpaceOnUse">
      <path
         inkscape:connector-curvature="0"
         id="path36"
         d="M 0,792 H 612 V 0 H 0 Z" />
    </clipPath>
    <clipPath
       id="clipPath146"
       clipPathUnits="userSpaceOnUse">
      <path
         inkscape:connector-curvature="0"
         id="path144"
         d="M 0,0 H 612 V 792 H 0 Z" />
    </clipPath>
    <clipPath
       id="clipPath262"
       clipPathUnits="userSpaceOnUse">
      <path
         inkscape:connector-curvature="0"
         id="path260"
         d="M 0,0 H 612 V 792 H 0 Z" />
    </clipPath>
    <style
       id="style857">
      .wf-a {
        isolation: isolate;
      }

      .wf-b, .wf-c {
        fill: #231f20;
      }

      .wf-c {
        stroke: #231f20;
        stroke-width: 0.64px;
      }

      .wf-d {
        fill: #ee2c24;
      }

      .wf-e {
        mix-blend-mode: multiply;
      }
    </style>
  </defs>
  <sodipodi:namedview
     id="base"
     pagecolor="#ffffff"
     bordercolor="#666666"
     borderopacity="1.0"
     inkscape:pageopacity="0.0"
     inkscape:pageshadow="2"
     inkscape:zoom="1.2870372"
     inkscape:cx="348.47476"
     inkscape:cy="115.18099"
     inkscape:document-units="mm"
     inkscape:current-layer="layer1"
     showgrid="false"
     fit-margin-top="0"
     fit-margin-left="0"
     fit-margin-right="0"
     fit-margin-bottom="0"
     inkscape:window-width="1280"
     inkscape:window-height="744"
     inkscape:window-x="-4"
     inkscape:window-y="-4"
     inkscape:window-maximized="1" />
  <metadata
     id="metadata5">
    <rdf:RDF>
      <cc:Work
         rdf:about="">
        <dc:format>image/svg+xml</dc:format>
        <dc:type
           rdf:resource="http://purl.org/dc/dcmitype/StillImage" />
        <dc:title></dc:title>
      </cc:Work>
    </rdf:RDF>
  </metadata>
  <g
     inkscape:label="Layer 1"
     inkscape:groupmode="layer"
     id="layer1"
     transform="translate(-151.05519,-398.35223)">
    <g
       id="g1029"
       transform="translate(0.50000087,-0.49999482)">
      <path
         id="path863"
         d="m 204.54357,446.67123 h -5.73938 l 0.66983,-7.45626 c -2.92962,6.46915 -6.69829,7.91457 -10.15672,7.90752 -4.6042,0 -7.67131,-2.92963 -8.1684,-7.43863 -0.76501,-6.93098 4.26928,-16.52364 16.25218,-16.50601 2.75335,0 6.20826,0.63105 9.20134,1.53708 z m -16.72458,-7.09314 c 0.23973,2.18576 1.50888,3.66291 3.61356,3.66644 2.69341,0 4.86155,-2.65817 6.08839,-5.55959 1.41017,-3.17287 2.30562,-6.8111 2.85559,-11.1791 a 10.928794,10.928794 0 0 0 -2.77803,-0.31728 c -7.05083,0 -10.34005,8.31646 -9.78303,13.3437 v 0.0458 z"
         class="wf-b"
         inkscape:connector-curvature="0"
         style="isolation:isolate;fill:#231f20;stroke-width:0.35254174" />
      <path
         id="path865"
         d="m 295.05866,423.77365 -0.87077,9.09557 c 1.43837,-3.90263 4.14589,-9.5433 9.44812,-9.5433 a 9.1026277,9.1026277 0 0 1 1.41016,0.14102 l -0.44773,4.79456 a 8.4821543,8.4821543 0 0 0 -1.30793,-0.11634 c -3.26453,0 -5.48555,2.7322 -6.67361,4.88271 -1.82617,3.52541 -2.86264,8.0168 -3.41613,13.74912 h -6.06372 l 2.15756,-23.02097 z"
         class="wf-b"
         inkscape:connector-curvature="0"
         style="isolation:isolate;fill:#231f20;stroke-width:0.35254174" />
      <path
         id="path867"
         d="m 312.97484,423.79832 -0.70509,7.50914 c 1.86847,-4.31863 5.51023,-7.96744 10.68907,-7.96039 2.88026,0 6.37043,1.30441 6.77232,4.97436 a 16.953732,16.953732 0 0 1 -0.10928,3.27864 l -1.41017,15.24391 h -6.19416 l 1.41017,-14.92309 a 11.940589,11.940589 0 0 0 0.0917,-2.68285 c -0.20095,-1.82264 -1.84027,-2.01301 -2.63701,-2.01301 -3.46901,0 -6.01437,4.19525 -6.76175,5.70413 -1.8297,3.92026 -2.38671,8.39401 -2.98251,13.90072 h -6.06371 l 2.15755,-23.03861 z"
         class="wf-b"
         inkscape:connector-curvature="0"
         style="isolation:isolate;fill:#231f20;stroke-width:0.35254174" />
      <path
         id="path869"
         d="m 257.10755,426.78083 -0.97654,15.11699 c -0.11634,1.85789 -0.25031,3.45138 -0.45831,4.80514 h 5.48555 c 0.32081,-1.74156 0.47946,-3.5924 0.6522,-5.41151 l 1.35376,-14.50357 h 3.82861 l 2.00596,-3.05654 h -5.54901 l 0.28556,-2.94372 c 0.21505,-2.37613 0.45125,-5.04135 4.3962,-5.0343 a 15.550616,15.550616 0 0 1 2.66521,0.26441 l 0.47593,-2.93667 a 25.865987,25.865987 0 0 0 -4.19877,-0.39485 c -9.0568,0 -9.23307,5.04135 -9.54683,8.29178 l -0.27851,2.73925 h -4.2305 l 1.43485,3.06006 h 2.66169 z"
         class="wf-b"
         inkscape:connector-curvature="0"
         style="isolation:isolate;fill:#231f20;stroke-width:0.35254174" />
      <path
         id="path871"
         d="m 217.30558,412.89421 -2.11525,21.29352 c 0,0 8.33056,-11.04866 12.1768,-11.04866 h 6.80053 c -3.94142,0 -11.16148,8.96161 -11.16148,8.96161 0,0.24678 6.06372,11.28134 9.2789,14.60581 h -7.57965 l -6.07076,-10.22371 c -2.16461,3.17287 -4.07891,4.93558 -4.61125,10.19198 h -6.06372 l 3.17288,-33.7876 z"
         class="wf-c"
         inkscape:connector-curvature="0"
         style="isolation:isolate;fill:#231f20;stroke:#231f20;stroke-width:0.22562671px" />
      <path
         id="path873"
         d="m 251.29413,443.45253 c -3.33152,2.58413 -5.00962,3.09179 -8.31998,3.63118 -6.34575,1.03647 -10.61503,-1.78387 -11.93001,-6.19064 -2.16109,-7.2271 3.70521,-16.39319 13.11102,-17.91969 3.952,-0.64515 7.29057,0.39132 8.14019,3.23633 1.36786,4.58304 -4.6465,7.11077 -5.78168,7.5867 a 68.417775,68.417775 0 0 1 -9.0427,2.79565 10.886489,10.886489 0 0 0 0.29261,3.5501 c 0.90251,3.01776 3.52542,3.73694 6.01084,3.32799 2.42196,-0.39484 4.93558,-1.9284 7.49856,-3.70874 z m -4.0366,-16.08648 c -0.39132,-1.30441 -1.67457,-1.69925 -3.05654,-1.47363 -2.86616,0.46888 -5.69002,3.59945 -6.67714,8.06616 3.87796,-0.93071 10.85829,-2.82034 9.74426,-6.5467 z"
         class="wf-c"
         inkscape:connector-curvature="0"
         style="isolation:isolate;fill:#231f20;stroke:#231f20;stroke-width:0.22562671px" />
      <path
         id="path875"
         d="m 285.13814,443.79449 c -3.00013,2.29857 -5.00257,2.79566 -8.31293,3.33857 -6.34576,1.03647 -10.61151,-1.78386 -11.93002,-6.19063 -2.16108,-7.22711 3.70522,-16.39672 13.11103,-17.93027 3.95199,-0.64516 7.29056,0.39132 8.14019,3.23633 1.36786,4.58304 -4.6465,7.11077 -5.77816,7.5867 a 68.431877,68.431877 0 0 1 -9.0427,2.79565 10.928794,10.928794 0 0 0 0.29261,3.5501 c 0.90251,3.01776 3.52542,3.73694 6.01437,3.32799 2.41843,-0.39484 4.93558,-1.9284 7.50208,-3.70874 z m -4.02955,-16.37909 c -0.39132,-1.3044 -1.6781,-1.69925 -3.05654,-1.47362 -2.86616,0.46888 -5.69002,3.59592 -6.67714,8.06615 3.87796,-0.93071 10.85829,-2.82033 9.74425,-6.5467 z"
         class="wf-c"
         inkscape:connector-curvature="0"
         style="isolation:isolate;fill:#231f20;stroke:#231f20;stroke-width:0.22562671px" />
      <path
         id="path877"
         d="m 235.94799,400.8267 c -28.26327,1.54061 -44.04656,8.60202 -52.72262,16.25923 -8.0591,7.10724 -10.68906,15.44133 -10.68906,15.44133 l -2.46779,-19.49556 h -1.93546 l -9.3212,19.48146 -1.03647,-20.07021 c 0,-0.0775 -6.59606,0 -6.59606,0 1.36434,14.07347 1.3044,18.56838 0.0212,34.90164 h 5.59836 l 9.54684,-18.02546 2.71809,18.04308 h 5.82047 c 1.26915,-14.37312 10.04391,-33.63953 39.72792,-42.01592 13.26968,-3.74399 19.74234,-4.30101 19.74234,-4.30101"
         class="wf-c"
         inkscape:connector-curvature="0"
         style="isolation:isolate;fill:#231f20;stroke:#231f20;stroke-width:0.22562671px" />
      <path
         id="path879"
         d="m 236.4768,400.76325 c 17.87387,-1.92841 38.36712,-1.6781 46.96209,-0.45831 11.28133,1.59702 17.73285,3.57125 19.53434,9.20487 0.56759,1.76271 -0.43716,5.00609 -4.32217,6.50087 -6.08487,2.3444 -11.03808,2.90142 -17.50722,3.08474 2.9261,-0.0176 11.26019,-1.41017 12.51876,-6.85694 2.49952,-10.77015 -31.09066,-12.28608 -56.51244,-11.54574"
         class="wf-d"
         inkscape:connector-curvature="0"
         style="isolation:isolate;fill:#ee2c24;stroke-width:0.35254174" />
      <path
         style="isolation:isolate;mix-blend-mode:multiply;fill:#231f20;stroke-width:0.35254174"
         inkscape:connector-curvature="0"
         class="wf-b"
         d="m 238.71544,460.18063 v -7.1707 h 4.91444 v 1.21275 h -3.46549 v 1.69572 h 2.99308 v 1.21275 h -2.99308 v 3.04596 h -1.44895 z"
         id="path881" />
      <path
         style="isolation:isolate;mix-blend-mode:multiply;fill:#231f20;stroke-width:0.35254174"
         inkscape:connector-curvature="0"
         class="wf-b"
         d="m 248.13183,456.63759 a 4.5583647,4.5583647 0 0 1 0.32787,-1.83675 3.3773499,3.3773499 0 0 1 0.6663,-0.98359 2.8203339,2.8203339 0 0 1 0.92719,-0.64515 3.9555183,3.9555183 0 0 1 1.54413,-0.28203 3.3632482,3.3632482 0 0 1 2.53477,0.98359 q 0.95187,0.98359 0.95187,2.7322 0,1.74861 -0.94482,2.7181 a 3.7686712,3.7686712 0 0 1 -5.06602,0 3.7016883,3.7016883 0 0 1 -0.94129,-2.68637 z m 1.49126,-0.0494 a 2.6863681,2.6863681 0 0 0 0.56406,1.84732 1.9319287,1.9319287 0 0 0 2.84854,0 2.7427747,2.7427747 0 0 0 0.55349,-1.872 2.6969443,2.6969443 0 0 0 -0.53939,-1.83674 2.0024371,2.0024371 0 0 0 -2.87674,0 2.7039951,2.7039951 0 0 0 -0.54996,1.86142 z"
         id="path883" />
      <path
         style="isolation:isolate;mix-blend-mode:multiply;fill:#231f20;stroke-width:0.35254174"
         inkscape:connector-curvature="0"
         class="wf-b"
         d="m 259.52951,456.63759 a 4.5583647,4.5583647 0 0 1 0.32786,-1.83675 3.3844007,3.3844007 0 0 1 0.66631,-0.98359 2.8203339,2.8203339 0 0 1 0.92718,-0.64515 3.9519929,3.9519929 0 0 1 1.54413,-0.28203 3.3667736,3.3667736 0 0 1 2.53478,0.98359 q 0.95186,0.98359 0.95186,2.7322 0,1.74861 -0.94481,2.7181 a 3.7686712,3.7686712 0 0 1 -5.06603,0 3.7016883,3.7016883 0 0 1 -0.94128,-2.68637 z m 1.49125,-0.0494 a 2.6898935,2.6898935 0 0 0 0.56407,1.84732 1.9319287,1.9319287 0 0 0 2.84853,0 2.7427747,2.7427747 0 0 0 0.55349,-1.872 2.6969443,2.6969443 0 0 0 -0.53938,-1.83674 2.0024371,2.0024371 0 0 0 -2.87675,0 2.7075206,2.7075206 0 0 0 -0.54996,1.86142 z"
         id="path885" />
      <path
         style="isolation:isolate;mix-blend-mode:multiply;fill:#231f20;stroke-width:0.35254174"
         inkscape:connector-curvature="0"
         class="wf-b"
         d="m 271.21274,453.00993 h 2.64406 a 5.1541602,5.1541602 0 0 1 1.36434,0.13749 2.4043347,2.4043347 0 0 1 1.0823,0.65926 3.1305707,3.1305707 0 0 1 0.68393,1.15986 5.2881261,5.2881261 0 0 1 0.23621,1.69573 4.6923306,4.6923306 0 0 1 -0.21858,1.5265 3.1728757,3.1728757 0 0 1 -0.76854,1.26563 2.5383005,2.5383005 0 0 1 -1.01884,0.57111 4.3715176,4.3715176 0 0 1 -1.27973,0.1516 h -2.72515 z m 1.44895,1.21275 v 4.74873 h 1.07878 a 3.9132133,3.9132133 0 0 0 0.8743,-0.067 1.3290824,1.3290824 0 0 0 0.58522,-0.29966 1.5229803,1.5229803 0 0 0 0.38074,-0.70508 4.6782289,4.6782289 0 0 0 0.14807,-1.31146 4.290433,4.290433 0 0 0 -0.14807,-1.2762 1.6463699,1.6463699 0 0 0 -0.40895,-0.70508 1.3713874,1.3713874 0 0 0 -0.66982,-0.35254 6.529073,6.529073 0 0 0 -1.18807,-0.0705 h -0.6522 z"
         id="path887" />
      <path
         style="isolation:isolate;mix-blend-mode:multiply;fill:#231f20;stroke-width:0.35254174"
         inkscape:connector-curvature="0"
         class="wf-b"
         d="m 293.02802,457.54362 1.41017,0.4442 a 3.1446723,3.1446723 0 0 1 -1.05762,1.74156 3.3773499,3.3773499 0 0 1 -4.25166,-0.40542 3.7298916,3.7298916 0 0 1 -0.92013,-2.66875 q 0,-1.79091 0.92366,-2.77802 a 3.1728757,3.1728757 0 0 1 2.42901,-0.99065 2.9789777,2.9789777 0 0 1 2.1364,0.77912 2.8203339,2.8203339 0 0 1 0.73329,1.32203 l -1.43132,0.35254 a 1.4806753,1.4806753 0 0 0 -1.5124,-1.20216 1.6322683,1.6322683 0 0 0 -1.29383,0.57111 q -0.49709,0.57465 -0.49709,1.85437 0,1.36081 0.49004,1.93546 a 1.5864378,1.5864378 0 0 0 1.27267,0.57817 1.452472,1.452472 0 0 0 0.99417,-0.35255 2.1152504,2.1152504 0 0 0 0.57464,-1.18101 z"
         id="path889" />
      <path
         style="isolation:isolate;mix-blend-mode:multiply;fill:#231f20;stroke-width:0.35254174"
         inkscape:connector-curvature="0"
         class="wf-b"
         d="m 298.98598,456.63759 a 4.5513139,4.5513139 0 0 1 0.32786,-1.83675 3.3773499,3.3773499 0 0 1 0.66631,-0.98359 2.7991814,2.7991814 0 0 1 0.92718,-0.64515 3.9519929,3.9519929 0 0 1 1.54413,-0.28203 3.3632482,3.3632482 0 0 1 2.53478,0.98359 q 0.95186,0.98359 0.95186,2.7322 0,1.74861 -0.94481,2.7181 a 3.7686712,3.7686712 0 0 1 -5.06602,0 3.7016883,3.7016883 0 0 1 -0.94129,-2.68637 z m 1.49125,-0.0494 a 2.6898935,2.6898935 0 0 0 0.56054,1.84732 1.9319287,1.9319287 0 0 0 2.84854,0 2.7392493,2.7392493 0 0 0 0.55702,-1.872 2.6969443,2.6969443 0 0 0 -0.53939,-1.83674 2.0024371,2.0024371 0 0 0 -2.87674,0 2.7039951,2.7039951 0 0 0 -0.54997,1.86142 z"
         id="path891" />
      <path
         style="isolation:isolate;mix-blend-mode:multiply;fill:#231f20;stroke-width:0.35254174"
         inkscape:connector-curvature="0"
         class="wf-b"
         d="m 310.67979,460.18063 v -7.1707 h 3.04596 a 5.1999907,5.1999907 0 0 1 1.67105,0.1939 1.6498953,1.6498953 0 0 1 0.83552,0.68746 2.0623692,2.0623692 0 0 1 0.31376,1.12813 1.9143016,1.9143016 0 0 1 -0.47593,1.33261 2.2738942,2.2738942 0 0 1 -1.41016,0.66278 3.3914515,3.3914515 0 0 1 0.77559,0.59932 8.1578159,8.1578159 0 0 1 0.82494,1.16339 l 0.87431,1.41016 h -1.73098 l -1.05763,-1.56176 a 10.121473,10.121473 0 0 0 -0.76149,-1.05762 1.1175573,1.1175573 0 0 0 -0.43715,-0.29966 2.4113855,2.4113855 0 0 0 -0.72976,-0.0811 h -0.29261 v 2.99308 h -1.44895 z m 1.44895,-4.13531 h 1.05762 a 5.5384307,5.5384307 0 0 0 1.30088,-0.0881 0.78264266,0.78264266 0 0 0 0.40542,-0.30318 0.93071019,0.93071019 0 0 0 0.14807,-0.53939 0.86020185,0.86020185 0 0 0 -0.1939,-0.58522 0.88487977,0.88487977 0 0 0 -0.54644,-0.28204 q -0.17627,-0.0247 -1.05762,-0.0247 h -1.12814 v 1.81911 z"
         id="path893" />
      <path
         style="isolation:isolate;mix-blend-mode:multiply;fill:#231f20;stroke-width:0.35254174"
         inkscape:connector-curvature="0"
         class="wf-b"
         d="m 321.5134,460.18063 v -7.1707 h 2.32325 a 8.429273,8.429273 0 0 1 1.7204,0.10577 1.8790475,1.8790475 0 0 1 1.03295,0.70508 2.2280638,2.2280638 0 0 1 0.416,1.41017 2.3373517,2.3373517 0 0 1 -0.23973,1.1105 1.9671829,1.9671829 0 0 1 -0.6099,0.70509 2.1152504,2.1152504 0 0 1 -0.75091,0.35254 8.2882563,8.2882563 0 0 1 -1.50183,0.10223 h -0.94481 v 2.704 h -1.44895 z m 1.44894,-5.95795 v 2.03416 h 0.79322 a 3.7580949,3.7580949 0 0 0 1.14576,-0.11281 0.95538812,0.95538812 0 0 0 0.45126,-0.35254 0.96596437,0.96596437 0 0 0 0.16217,-0.55702 0.93071019,0.93071019 0 0 0 -0.22916,-0.64515 1.0012185,1.0012185 0 0 0 -0.58169,-0.31729 6.934496,6.934496 0 0 0 -1.05763,-0.0493 h -0.70508 z"
         id="path895" />
      <path
         style="isolation:isolate;mix-blend-mode:multiply;fill:#231f20;stroke-width:0.35254174"
         inkscape:connector-curvature="0"
         class="wf-b"
         d="m 326.97427,460.18063 v -1.37491 h 1.37491 v 1.37491 z"
         id="path897" />
      <path
         style="isolation:isolate;fill:#231f20;stroke-width:0.35254174"
         inkscape:connector-curvature="0"
         class="wf-b"
         d="m 330.06253,454.64925 a 2.6969443,2.6969443 0 1 1 2.70047,2.70047 2.7004697,2.7004697 0 0 1 -2.70047,-2.70047 z m 4.88623,0 a 2.1892842,2.1892842 0 1 0 -2.18576,2.19281 2.178708,2.178708 0 0 0 2.18929,-2.19281 z m -0.8461,1.46658 h -0.66278 l -0.64867,-1.22685 h -0.57112 v 1.22332 h -0.57112 v -2.90494 h 1.41017 a 1.6710478,1.6710478 0 0 1 0.78969,0.13396 0.83199851,0.83199851 0 0 1 0.35254,0.75444 c 0,0.53586 -0.27498,0.75444 -0.78969,0.78969 z m -1.02942,-1.664 c 0.32434,0 0.54997,-0.0705 0.54997,-0.43715 0,-0.36665 -0.416,-0.3878 -0.70509,-0.3878 h -0.70508 v 0.82495 h 0.85315 z"
         id="path903" />
    </g>
  </g>
</svg>
